<svg id="visual" viewBox="0 0 900 600" width="900" height="600" xmlns="http://www.w3.org/2000/svg" xmlns:xlink="http://www.w3.org/1999/xlink" version="1.1"><path d="M644 600L635 585.7C626 571.3 608 542.7 624.8 514.2C641.7 485.7 693.3 457.3 689.5 428.8C685.7 400.3 626.3 371.7 613.3 343C600.3 314.3 633.7 285.7 664.5 257C695.3 228.3 723.7 199.7 734.8 171.2C746 142.7 740 114.3 722.2 85.8C704.3 57.3 674.7 28.7 659.8 14.3L645 0L900 0L900 14.3C900 28.7 900 57.3 900 85.8C900 114.3 900 142.7 900 171.2C900 199.7 900 228.3 900 257C900 285.7 900 314.3 900 343C900 371.7 900 400.3 900 428.8C900 457.3 900 485.7 900 514.2C900 542.7 900 571.3 900 585.7L900 600Z" fill="#002233" stroke-linecap="round" stroke-linejoin="miter"></path></svg>